<svg xmlns="http://www.w3.org/2000/svg" width="575.8" height="204.8" viewBox="0 0 575.8 204.8">
  <g id="グループ_61" data-name="グループ 61" transform="translate(-262.1 -3064.1)">
    <g id="グループ_21" data-name="グループ 21" transform="translate(263 3064.655)">
      <path id="線_1" data-name="線 1" d="M.9,42H-.9V0H.9Z" transform="translate(0 0.345)" fill="#72b7d4"/>
      <path id="線_2" data-name="線 2" d="M42.9.9H-.9V-.9H42.9Z" transform="translate(0 0.345)" fill="#72b7d4"/>
    </g>
    <g id="グループ_22" data-name="グループ 22" transform="translate(794.974 3064.655)">
      <path id="線_1-2" data-name="線 1" d="M.9,42H-.9V0H.9Z" transform="translate(42.026 0.345)" fill="#72b7d4"/>
      <path id="線_2-2" data-name="線 2" d="M42.9.9H-.9V-.9H42.9Z" transform="translate(0.026 0.345)" fill="#72b7d4"/>
    </g>
    <g id="グループ_23" data-name="グループ 23" transform="translate(263 3226.455)">
      <path id="線_1-3" data-name="線 1" d="M.9,42H-.9V0H.9Z" transform="translate(0 -0.455)" fill="#72b7d4"/>
      <path id="線_2-3" data-name="線 2" d="M42.9.9H-.9V-.9H42.9Z" transform="translate(0 41.545)" fill="#72b7d4"/>
    </g>
    <g id="グループ_24" data-name="グループ 24" transform="translate(794.974 3226.455)">
      <path id="線_1-4" data-name="線 1" d="M.9,42H-.9V0H.9Z" transform="translate(42.026 -0.455)" fill="#72b7d4"/>
      <path id="線_2-4" data-name="線 2" d="M42.9.9H-.9V-.9H42.9Z" transform="translate(0.026 41.545)" fill="#72b7d4"/>
    </g>
  </g>
</svg>
