<svg xmlns="http://www.w3.org/2000/svg" width="299.8" height="94.8" viewBox="0 0 299.8 94.8">
  <g id="枠" transform="translate(-210.1 -1569.138)">
    <g id="グループ_21" data-name="グループ 21" transform="translate(211 1569.795)">
      <path id="線_1" data-name="線 1" d="M.9,20H-.9V0H.9Z" transform="translate(0 0.244)" fill="#72b7d4"/>
      <path id="線_2" data-name="線 2" d="M20.9.9H-.9V-.9H20.9Z" transform="translate(0 0.244)" fill="#72b7d4"/>
    </g>
    <g id="グループ_22" data-name="グループ 22" transform="translate(489.079 1569.795)">
      <path id="線_1-2" data-name="線 1" d="M.9,20H-.9V0H.9Z" transform="translate(19.921 0.244)" fill="#72b7d4"/>
      <path id="線_2-2" data-name="線 2" d="M20.9.9H-.9V-.9H20.9Z" transform="translate(-0.079 0.244)" fill="#72b7d4"/>
    </g>
    <g id="グループ_23" data-name="グループ 23" transform="translate(211 1642.853)">
      <path id="線_1-3" data-name="線 1" d="M.9,20H-.9V0H.9Z" transform="translate(0 0.185)" fill="#72b7d4"/>
      <path id="線_2-3" data-name="線 2" d="M20.9.9H-.9V-.9H20.9Z" transform="translate(0 20.185)" fill="#72b7d4"/>
    </g>
    <g id="グループ_24" data-name="グループ 24" transform="translate(489.079 1642.853)">
      <path id="線_1-4" data-name="線 1" d="M.9,20H-.9V0H.9Z" transform="translate(19.921 0.185)" fill="#72b7d4"/>
      <path id="線_2-4" data-name="線 2" d="M20.9.9H-.9V-.9H20.9Z" transform="translate(-0.079 20.185)" fill="#72b7d4"/>
    </g>
  </g>
</svg>
