<svg xmlns="http://www.w3.org/2000/svg" width="74.148" height="27.507" viewBox="0 0 74.148 27.507"><g transform="translate(-673.938 -1244.589)"><path d="M-2231.186,1267.094l-7.876-11.293,1.8-1.259,7.876,11.293Z" transform="translate(2913 5.003)" fill="#5aa3c3"/><path d="M-2226.189,1263.542l-5.676-14.627,2.051-.8,5.676,14.627Z" transform="translate(2916.46 1.857)" fill="#5aa3c3"/><path d="M-2220.3,1260.349l-2.531-11.6,2.149-.469,2.531,11.6Z" transform="translate(2920.754 1.857)" fill="#5aa3c3"/><path d="M-2212.391,1263.1h-2.2v-18.508h2.2Z" transform="translate(2924.661)" fill="#5aa3c3"/><path d="M-2237.257,1267.094l-1.8-1.259,7.876-11.293,1.8,1.259Z" transform="translate(2977.467 5.003)" fill="#5aa3c3"/><path d="M-2229.814,1263.542l-2.051-.8,5.676-14.627,2.051.8Z" transform="translate(2961.567 1.857)" fill="#5aa3c3"/><path d="M-2220.681,1260.349l-2.149-.469,2.531-11.6,2.149.469Z" transform="translate(2942.25 1.857)" fill="#5aa3c3"/></g></svg>